<svg id="visual" viewBox="0 0 900 600" width="900" height="600" xmlns="http://www.w3.org/2000/svg" xmlns:xlink="http://www.w3.org/1999/xlink" version="1.1"><rect x="0" y="0" width="900" height="600" fill="#001220"></rect><defs><linearGradient id="grad1_0" x1="33.3%" y1="0%" x2="100%" y2="100%"><stop offset="20%" stop-color="#fbae3c" stop-opacity="1"></stop><stop offset="80%" stop-color="#fbae3c" stop-opacity="1"></stop></linearGradient></defs><defs><linearGradient id="grad1_1" x1="33.3%" y1="0%" x2="100%" y2="100%"><stop offset="20%" stop-color="#fbae3c" stop-opacity="1"></stop><stop offset="80%" stop-color="#f48350" stop-opacity="1"></stop></linearGradient></defs><defs><linearGradient id="grad1_2" x1="33.3%" y1="0%" x2="100%" y2="100%"><stop offset="20%" stop-color="#d96162" stop-opacity="1"></stop><stop offset="80%" stop-color="#f48350" stop-opacity="1"></stop></linearGradient></defs><defs><linearGradient id="grad1_3" x1="33.3%" y1="0%" x2="100%" y2="100%"><stop offset="20%" stop-color="#d96162" stop-opacity="1"></stop><stop offset="80%" stop-color="#af4b6d" stop-opacity="1"></stop></linearGradient></defs><defs><linearGradient id="grad1_4" x1="33.3%" y1="0%" x2="100%" y2="100%"><stop offset="20%" stop-color="#7c3e6b" stop-opacity="1"></stop><stop offset="80%" stop-color="#af4b6d" stop-opacity="1"></stop></linearGradient></defs><defs><linearGradient id="grad1_5" x1="33.3%" y1="0%" x2="100%" y2="100%"><stop offset="20%" stop-color="#7c3e6b" stop-opacity="1"></stop><stop offset="80%" stop-color="#49335c" stop-opacity="1"></stop></linearGradient></defs><defs><linearGradient id="grad1_6" x1="33.3%" y1="0%" x2="100%" y2="100%"><stop offset="20%" stop-color="#1d2540" stop-opacity="1"></stop><stop offset="80%" stop-color="#49335c" stop-opacity="1"></stop></linearGradient></defs><defs><linearGradient id="grad1_7" x1="33.3%" y1="0%" x2="100%" y2="100%"><stop offset="20%" stop-color="#1d2540" stop-opacity="1"></stop><stop offset="80%" stop-color="#001220" stop-opacity="1"></stop></linearGradient></defs><defs><linearGradient id="grad2_0" x1="0%" y1="0%" x2="66.7%" y2="100%"><stop offset="20%" stop-color="#fbae3c" stop-opacity="1"></stop><stop offset="80%" stop-color="#fbae3c" stop-opacity="1"></stop></linearGradient></defs><defs><linearGradient id="grad2_1" x1="0%" y1="0%" x2="66.7%" y2="100%"><stop offset="20%" stop-color="#f48350" stop-opacity="1"></stop><stop offset="80%" stop-color="#fbae3c" stop-opacity="1"></stop></linearGradient></defs><defs><linearGradient id="grad2_2" x1="0%" y1="0%" x2="66.7%" y2="100%"><stop offset="20%" stop-color="#f48350" stop-opacity="1"></stop><stop offset="80%" stop-color="#d96162" stop-opacity="1"></stop></linearGradient></defs><defs><linearGradient id="grad2_3" x1="0%" y1="0%" x2="66.7%" y2="100%"><stop offset="20%" stop-color="#af4b6d" stop-opacity="1"></stop><stop offset="80%" stop-color="#d96162" stop-opacity="1"></stop></linearGradient></defs><defs><linearGradient id="grad2_4" x1="0%" y1="0%" x2="66.7%" y2="100%"><stop offset="20%" stop-color="#af4b6d" stop-opacity="1"></stop><stop offset="80%" stop-color="#7c3e6b" stop-opacity="1"></stop></linearGradient></defs><defs><linearGradient id="grad2_5" x1="0%" y1="0%" x2="66.7%" y2="100%"><stop offset="20%" stop-color="#49335c" stop-opacity="1"></stop><stop offset="80%" stop-color="#7c3e6b" stop-opacity="1"></stop></linearGradient></defs><defs><linearGradient id="grad2_6" x1="0%" y1="0%" x2="66.7%" y2="100%"><stop offset="20%" stop-color="#49335c" stop-opacity="1"></stop><stop offset="80%" stop-color="#1d2540" stop-opacity="1"></stop></linearGradient></defs><defs><linearGradient id="grad2_7" x1="0%" y1="0%" x2="66.7%" y2="100%"><stop offset="20%" stop-color="#001220" stop-opacity="1"></stop><stop offset="80%" stop-color="#1d2540" stop-opacity="1"></stop></linearGradient></defs><g transform="translate(900, 0)"><path d="M0 459.7C-87.3 451.7 -174.6 443.6 -229.9 398.1C-285.1 352.6 -308.3 269.6 -341.2 197C-374.2 124.4 -416.9 62.2 -459.7 0L0 0Z" fill="#0c1c30"></path><path d="M0 402.2C-76.4 395.2 -152.8 388.2 -201.1 348.4C-249.5 308.5 -269.7 235.9 -298.6 172.4C-327.4 108.8 -364.8 54.4 -402.2 0L0 0Z" fill="#312c4f"></path><path d="M0 344.8C-65.5 338.8 -131 332.7 -172.4 298.6C-213.8 264.5 -231.2 202.2 -255.9 147.8C-280.6 93.3 -312.7 46.6 -344.8 0L0 0Z" fill="#623965"></path><path d="M0 287.3C-54.6 282.3 -109.1 277.3 -143.7 248.8C-178.2 220.4 -192.7 168.5 -213.3 123.1C-233.9 77.7 -260.6 38.9 -287.3 0L0 0Z" fill="#96446e"></path><path d="M0 229.9C-43.7 225.8 -87.3 221.8 -114.9 199.1C-142.5 176.3 -154.1 134.8 -170.6 98.5C-187.1 62.2 -208.5 31.1 -229.9 0L0 0Z" fill="#c55469"></path><path d="M0 172.4C-32.7 169.4 -65.5 166.4 -86.2 149.3C-106.9 132.2 -115.6 101.1 -128 73.9C-140.3 46.6 -156.4 23.3 -172.4 0L0 0Z" fill="#e9705a"></path><path d="M0 114.9C-21.8 112.9 -43.7 110.9 -57.5 99.5C-71.3 88.2 -77.1 67.4 -85.3 49.3C-93.5 31.1 -104.2 15.5 -114.9 0L0 0Z" fill="#fa9845"></path><path d="M0 57.5C-10.9 56.5 -21.8 55.5 -28.7 49.8C-35.6 44.1 -38.5 33.7 -42.7 24.6C-46.8 15.5 -52.1 7.8 -57.5 0L0 0Z" fill="#fbae3c"></path></g><g transform="translate(0, 600)"><path d="M0 -459.7C49.9 -395.7 99.9 -331.7 174 -301.4C248.1 -271.1 346.5 -274.5 398.1 -229.9C449.8 -185.2 454.7 -92.6 459.7 0L0 0Z" fill="#0c1c30"></path><path d="M0 -402.2C43.7 -346.2 87.4 -290.2 152.2 -263.7C217.1 -237.2 303.2 -240.2 348.4 -201.1C393.5 -162.1 397.9 -81 402.2 0L0 0Z" fill="#312c4f"></path><path d="M0 -344.8C37.4 -296.8 74.9 -248.8 130.5 -226C186.1 -203.3 259.9 -205.8 298.6 -172.4C337.3 -138.9 341.1 -69.5 344.8 0L0 0Z" fill="#623965"></path><path d="M0 -287.3C31.2 -247.3 62.4 -207.3 108.7 -188.4C155.1 -169.4 216.5 -171.5 248.8 -143.7C281.1 -115.8 284.2 -57.9 287.3 0L0 0Z" fill="#96446e"></path><path d="M0 -229.9C25 -197.8 49.9 -165.8 87 -150.7C124.1 -135.5 173.2 -137.2 199.1 -114.9C224.9 -92.6 227.4 -46.3 229.9 0L0 0Z" fill="#c55469"></path><path d="M0 -172.4C18.7 -148.4 37.4 -124.4 65.2 -113C93.1 -101.7 129.9 -102.9 149.3 -86.2C168.7 -69.5 170.5 -34.7 172.4 0L0 0Z" fill="#e9705a"></path><path d="M0 -114.9C12.5 -98.9 25 -82.9 43.5 -75.3C62 -67.8 86.6 -68.6 99.5 -57.5C112.4 -46.3 113.7 -23.2 114.9 0L0 0Z" fill="#fa9845"></path><path d="M0 -57.5C6.2 -49.5 12.5 -41.5 21.7 -37.7C31 -33.9 43.3 -34.3 49.8 -28.7C56.2 -23.2 56.8 -11.6 57.5 0L0 0Z" fill="#fbae3c"></path></g></svg>