<svg id="visual" viewBox="0 0 400 1000" width="400" height="1000" xmlns="http://www.w3.org/2000/svg" xmlns:xlink="http://www.w3.org/1999/xlink" version="1.1"><rect x="0" y="0" width="400" height="1000" fill="#001220"></rect><defs><linearGradient id="grad1_0" x1="0%" y1="0%" x2="100%" y2="100%"><stop offset="30%" stop-color="#fbae3c" stop-opacity="1"></stop><stop offset="70%" stop-color="#fbae3c" stop-opacity="1"></stop></linearGradient></defs><defs><linearGradient id="grad1_1" x1="0%" y1="0%" x2="100%" y2="100%"><stop offset="30%" stop-color="#fbae3c" stop-opacity="1"></stop><stop offset="70%" stop-color="#f48350" stop-opacity="1"></stop></linearGradient></defs><defs><linearGradient id="grad1_2" x1="0%" y1="0%" x2="100%" y2="100%"><stop offset="30%" stop-color="#d96162" stop-opacity="1"></stop><stop offset="70%" stop-color="#f48350" stop-opacity="1"></stop></linearGradient></defs><defs><linearGradient id="grad1_3" x1="0%" y1="0%" x2="100%" y2="100%"><stop offset="30%" stop-color="#d96162" stop-opacity="1"></stop><stop offset="70%" stop-color="#af4b6d" stop-opacity="1"></stop></linearGradient></defs><defs><linearGradient id="grad1_4" x1="0%" y1="0%" x2="100%" y2="100%"><stop offset="30%" stop-color="#7c3e6b" stop-opacity="1"></stop><stop offset="70%" stop-color="#af4b6d" stop-opacity="1"></stop></linearGradient></defs><defs><linearGradient id="grad1_5" x1="0%" y1="0%" x2="100%" y2="100%"><stop offset="30%" stop-color="#7c3e6b" stop-opacity="1"></stop><stop offset="70%" stop-color="#49335c" stop-opacity="1"></stop></linearGradient></defs><defs><linearGradient id="grad1_6" x1="0%" y1="0%" x2="100%" y2="100%"><stop offset="30%" stop-color="#1d2540" stop-opacity="1"></stop><stop offset="70%" stop-color="#49335c" stop-opacity="1"></stop></linearGradient></defs><defs><linearGradient id="grad1_7" x1="0%" y1="0%" x2="100%" y2="100%"><stop offset="30%" stop-color="#1d2540" stop-opacity="1"></stop><stop offset="70%" stop-color="#001220" stop-opacity="1"></stop></linearGradient></defs><defs><linearGradient id="grad2_0" x1="0%" y1="0%" x2="100%" y2="100%"><stop offset="30%" stop-color="#fbae3c" stop-opacity="1"></stop><stop offset="70%" stop-color="#fbae3c" stop-opacity="1"></stop></linearGradient></defs><defs><linearGradient id="grad2_1" x1="0%" y1="0%" x2="100%" y2="100%"><stop offset="30%" stop-color="#f48350" stop-opacity="1"></stop><stop offset="70%" stop-color="#fbae3c" stop-opacity="1"></stop></linearGradient></defs><defs><linearGradient id="grad2_2" x1="0%" y1="0%" x2="100%" y2="100%"><stop offset="30%" stop-color="#f48350" stop-opacity="1"></stop><stop offset="70%" stop-color="#d96162" stop-opacity="1"></stop></linearGradient></defs><defs><linearGradient id="grad2_3" x1="0%" y1="0%" x2="100%" y2="100%"><stop offset="30%" stop-color="#af4b6d" stop-opacity="1"></stop><stop offset="70%" stop-color="#d96162" stop-opacity="1"></stop></linearGradient></defs><defs><linearGradient id="grad2_4" x1="0%" y1="0%" x2="100%" y2="100%"><stop offset="30%" stop-color="#af4b6d" stop-opacity="1"></stop><stop offset="70%" stop-color="#7c3e6b" stop-opacity="1"></stop></linearGradient></defs><defs><linearGradient id="grad2_5" x1="0%" y1="0%" x2="100%" y2="100%"><stop offset="30%" stop-color="#49335c" stop-opacity="1"></stop><stop offset="70%" stop-color="#7c3e6b" stop-opacity="1"></stop></linearGradient></defs><defs><linearGradient id="grad2_6" x1="0%" y1="0%" x2="100%" y2="100%"><stop offset="30%" stop-color="#49335c" stop-opacity="1"></stop><stop offset="70%" stop-color="#1d2540" stop-opacity="1"></stop></linearGradient></defs><defs><linearGradient id="grad2_7" x1="0%" y1="0%" x2="100%" y2="100%"><stop offset="30%" stop-color="#001220" stop-opacity="1"></stop><stop offset="70%" stop-color="#1d2540" stop-opacity="1"></stop></linearGradient></defs><g transform="translate(400, 0)"><path d="M0 360C-66.6 352.7 -133.2 345.4 -180 311.8C-226.8 278.2 -253.9 218.3 -280.6 162C-307.3 105.7 -333.6 52.8 -360 0L0 0Z" fill="#0c1c30"></path><path d="M0 315C-58.3 308.6 -116.5 302.2 -157.5 272.8C-198.5 243.4 -222.2 191 -245.5 141.8C-268.9 92.5 -291.9 46.2 -315 0L0 0Z" fill="#312c4f"></path><path d="M0 270C-49.9 264.5 -99.9 259 -135 233.8C-170.1 208.6 -190.4 163.8 -210.4 121.5C-230.5 79.2 -250.2 39.6 -270 0L0 0Z" fill="#623965"></path><path d="M0 225C-41.6 220.4 -83.2 215.8 -112.5 194.9C-141.8 173.9 -158.7 136.5 -175.4 101.3C-192.1 66 -208.5 33 -225 0L0 0Z" fill="#96446e"></path><path d="M0 180C-33.3 176.3 -66.6 172.7 -90 155.9C-113.4 139.1 -126.9 109.2 -140.3 81C-153.6 52.8 -166.8 26.4 -180 0L0 0Z" fill="#c55469"></path><path d="M0 135C-25 132.3 -49.9 129.5 -67.5 116.9C-85.1 104.3 -95.2 81.9 -105.2 60.8C-115.2 39.6 -125.1 19.8 -135 0L0 0Z" fill="#e9705a"></path><path d="M0 90C-16.6 88.2 -33.3 86.3 -45 77.9C-56.7 69.5 -63.5 54.6 -70.1 40.5C-76.8 26.4 -83.4 13.2 -90 0L0 0Z" fill="#fa9845"></path><path d="M0 45C-8.3 44.1 -16.6 43.2 -22.5 39C-28.4 34.8 -31.7 27.3 -35.1 20.3C-38.4 13.2 -41.7 6.6 -45 0L0 0Z" fill="#fbae3c"></path></g><g transform="translate(0, 1000)"><path d="M0 -360C52 -332.3 104.1 -304.5 160.5 -278C216.9 -251.5 277.8 -226.1 311.8 -180C345.8 -133.9 352.9 -66.9 360 0L0 0Z" fill="#0c1c30"></path><path d="M0 -315C45.5 -290.7 91.1 -266.5 140.4 -243.2C189.8 -220 243.1 -197.9 272.8 -157.5C302.5 -117.1 308.8 -58.6 315 0L0 0Z" fill="#312c4f"></path><path d="M0 -270C39 -249.2 78 -228.4 120.4 -208.5C162.7 -188.6 208.3 -169.6 233.8 -135C259.3 -100.4 264.7 -50.2 270 0L0 0Z" fill="#623965"></path><path d="M0 -225C32.5 -207.7 65 -190.3 100.3 -173.7C135.6 -157.2 173.6 -141.3 194.9 -112.5C216.1 -83.7 220.5 -41.8 225 0L0 0Z" fill="#96446e"></path><path d="M0 -180C26 -166.1 52 -152.3 80.2 -139C108.5 -125.7 138.9 -113.1 155.9 -90C172.9 -66.9 176.4 -33.5 180 0L0 0Z" fill="#c55469"></path><path d="M0 -135C19.5 -124.6 39 -114.2 60.2 -104.2C81.4 -94.3 104.2 -84.8 116.9 -67.5C129.7 -50.2 132.3 -25.1 135 0L0 0Z" fill="#e9705a"></path><path d="M0 -90C13 -83.1 26 -76.1 40.1 -69.5C54.2 -62.9 69.4 -56.5 77.9 -45C86.4 -33.5 88.2 -16.7 90 0L0 0Z" fill="#fa9845"></path><path d="M0 -45C6.5 -41.5 13 -38.1 20.1 -34.7C27.1 -31.4 34.7 -28.3 39 -22.5C43.2 -16.7 44.1 -8.4 45 0L0 0Z" fill="#fbae3c"></path></g></svg>