<svg id="visual" viewBox="0 0 900 600" width="900" height="600" xmlns="http://www.w3.org/2000/svg" xmlns:xlink="http://www.w3.org/1999/xlink" version="1.1"><rect x="0" y="0" width="900" height="600" fill="#002233"></rect><path d="M621 600L619.7 594.5C618.3 589 615.7 578 623.2 566.8C630.7 555.7 648.3 544.3 654.3 533.2C660.3 522 654.7 511 653.8 500C653 489 657 478 662.3 466.8C667.7 455.7 674.3 444.3 670.3 433.2C666.3 422 651.7 411 647 400C642.3 389 647.7 378 650.2 366.8C652.7 355.7 652.3 344.3 652.7 333.2C653 322 654 311 657.3 300C660.7 289 666.3 278 665.7 266.8C665 255.7 658 244.3 650.7 233.2C643.3 222 635.7 211 623.8 200C612 189 596 178 593 166.8C590 155.7 600 144.3 616.3 133.2C632.7 122 655.3 111 661.8 100C668.3 89 658.7 78 646.2 66.8C633.7 55.7 618.3 44.3 620.7 33.2C623 22 643 11 653 5.5L663 0L900 0L900 5.5C900 11 900 22 900 33.2C900 44.3 900 55.7 900 66.8C900 78 900 89 900 100C900 111 900 122 900 133.2C900 144.3 900 155.7 900 166.8C900 178 900 189 900 200C900 211 900 222 900 233.2C900 244.3 900 255.7 900 266.8C900 278 900 289 900 300C900 311 900 322 900 333.2C900 344.3 900 355.7 900 366.8C900 378 900 389 900 400C900 411 900 422 900 433.2C900 444.3 900 455.7 900 466.8C900 478 900 489 900 500C900 511 900 522 900 533.2C900 544.3 900 555.7 900 566.8C900 578 900 589 900 594.5L900 600Z" fill="#0066FF" stroke-linecap="round" stroke-linejoin="miter"></path></svg>